<?xml version="1.0" encoding="UTF-8"?>
<svg id="_图层_2" data-name="图层 2" xmlns="http://www.w3.org/2000/svg" viewBox="0 0 1323.48 135.75">
  <g id="_图层_1-2" data-name="图层 1">
    <polygon points="1279.68 40.08 1232.46 87.28 1185.25 135.43 1131.31 135.41 1193.93 72.76 1267.42 .83 1323.47 .8 1323.48 135.55 1279.92 135.6 1279.68 40.08"/>
    <polygon points="451.56 40.12 361.23 135.37 306.24 135.42 368.3 71.12 435.62 .77 493.41 .76 493.42 135.55 451.82 135.64 451.56 40.12"/>
    <polygon points="1198.02 .16 1253.17 .21 1189.78 62.64 1117.2 135.37 1063.28 135.44 1064.43 .32 1106.58 .3 1106.4 93.64 1152.58 46.43 1198.02 .16"/>
    <polygon points="144.55 103.03 144.63 135.56 0 135.64 .71 20.55 42.79 68.96 42.84 103.05 144.55 103.03"/>
    <path d="M602.51,135.75l-43.8-36.52-45.14-39.11,103.94-.32c4.94-.02,9.32-3.36,9.35-8.24l.08-12.64c.03-4.78-4.54-8.5-9.56-8.5l-107.01-.06-.18-30.21,116.27.06c10.86.83,20.76,3.33,28.65,10.64,12.28,11.38,12.87,30.1,10.82,46.89-2.23,18.3-16.25,31.63-34.75,32.24l-26.16.87,56.72,44.52-59.22.36Z"/>
    <polygon points="550.59 135.5 510.01 135.64 510.49 65.03 550.5 100.69 550.59 135.5"/>
    <path d="M1016.74,25.78c-10.65-14.34-24.58-22.32-41.5-25.28l52.48-.21c35.86,39.07,33.99,99.36-4.47,135.3l-116.46-.12c-38.04-37.14-36.92-98.41.79-135.47l51.15.47c-14.63,2.98-27.39,9.31-37.5,20.6-27.69,30.17-22.8,78.26,10.46,102.11,21.11,15.13,47.94,14.23,68.61-.92,30.72-22.51,38.79-64.94,16.43-96.47Z"/>
    <polygon points="997.74 41.57 965.63 96.25 935.09 41.57 997.74 41.57"/>
    <polygon points="42.47 59.86 .81 12.1 .82 .5 42.79 .44 42.47 59.86"/>
    <polygon points="299.77 51.2 299.73 79.66 244.55 79.61 217.62 79.65 202.43 62.36 162.35 15.44 162.5 .22 307.4 .22 307.35 30.37 204.22 30.4 204.26 51.25 299.77 51.2"/>
    <polygon points="299.57 104.31 299.87 127.44 291.12 135.6 161.38 135.6 162.56 24.5 204.09 72.56 204.15 104.36 299.57 104.31"/>
    <path d="M865.97.39l-2.47,135.17-52.36.07-93.02-97.69-29.59-31.6c-1.8-1.41-2.76-3.37-2.77-5.99l48.91-.14,87.54,96.53,2.18-96.3,41.58-.04Z"/>
    <polygon points="723.81 135.13 683.97 135.56 686 14.72 724.83 55.81 723.81 135.13"/>
  </g>
</svg>